<?xml version="1.0" encoding="utf-8"?>

<!DOCTYPE svg PUBLIC "-//W3C//DTD SVG 1.1//EN" "http://www.w3.org/Graphics/SVG/1.1/DTD/svg11.dtd">
<svg version="1.1" id="Layer_1" xmlns="http://www.w3.org/2000/svg" xmlns:xlink="http://www.w3.org/1999/xlink" x="0px" y="0px"
	 viewBox="-55 -58.407 1918 2036.814" enable-background="new -55 -58.407 1918 2036.814" xml:space="preserve">
<g fill="white">
	<path d="M379.56,22.33C437.18,7.72,496.67,1.49,556.03,0.5c47.35-0.43,94.72,0.17,142.04,2.04c49.12,2.03,98.21,5.83,146.86,13.03
		c69.75,10.26,138.69,27.92,203.47,55.98c43.46,18.76,84.97,42.03,123.61,69.36c31.15,21.53,58.99,47.58,83.84,76.09
		c48.88,56.61,86.59,122.78,110.8,193.53c15.23,44.92,24.83,91.97,25.98,139.47c0.57,24.71-1.74,49.37-3.29,74.01
		c-3.87,48.35-9.63,96.63-19.68,144.12c-8.44,40.76-20.08,80.87-35.08,119.71c-20.74,54.83-36.47,112.22-67.08,162.71
		c-9.49,15.36-20.46,30.17-34.58,41.58c20.81-19.38,35.68-44.13,47.55-69.74c18.61-40.08,31.06-82.59,45.34-124.31
		c6.88-19.4,13.96-38.75,19.58-58.56c21.7-73.56,31.35-150.11,35.69-226.5c1.4-24.97,2.85-50.02,1.17-75.01
		c-4.32-60.93-21.9-120.42-47.66-175.63c-16.81-35.9-37.25-70.11-60.94-101.89c-24.39-32.58-52.27-62.66-83.93-88.29
		c-16.15-13.11-33.44-24.72-50.95-35.92c-20.8-13.09-42.28-25.11-64.39-35.83c-61.18-29.94-126.88-50-193.8-62.17
		c-90.17-16.53-182.11-19.75-273.57-20.19c-40.42-0.57-80.93,0.1-121.17,4.23c-77.36,7.49-154.01,27.46-223.27,63.16
		c-35.75,18.19-69.44,40.32-100.86,65.23c-24.48,19.27-47.62,40.46-67.23,64.74c-18.96,23.25-34.66,49.21-46.04,76.99
		C33.78,327.91,26.07,365.89,22.54,404c-3.98,42.6-3.32,85.49-1.46,128.19c1.85,39.81,8.21,79.34,18.29,117.88
		c19.39,74.76,51.75,145.35,86.8,213.92c30.98,60.49,64.11,119.88,93.88,181c20.19,41.36,38.63,83.63,53.58,127.18
		c28.94,84.6,47.71,172.75,54.9,261.89c4,51.86,4.04,104.13-2,155.83c-2.48,19.93-5.14,39.93-10.33,59.37
		c-5.6,21.17-13.58,41.7-23.73,61.11c-14.62,27.92-33.94,53.67-58.24,73.89c-13.78,11.54-29.31,20.86-45.53,28.54
		c-17.04,8.02-35.66,13.56-54.64,13.09c-18.22-0.31-35.78-6.22-52.21-13.72c-19.81-9.06-38.55-20.24-57.72-30.54
		c-7.9-4.15-15.69-8.61-24.13-11.61v-0.31c0.64-0.07,1.92-0.21,2.55-0.28c2.07,2.3,5.05,3.26,7.81,4.47
		c22.51,10.36,43.77,23.24,66.31,33.56c18,8.23,37.23,15.17,57.27,15.16c19.26,0.23,37.91-6.16,54.94-14.69
		c13.11-6.75,25.81-14.43,37.28-23.74c15.51-12.45,28.92-27.37,40.4-43.56c18.89-26.79,32.56-57.12,41.04-88.74
		c5.69-20.89,8.27-42.44,10.64-63.91c7.77-79.01,2.27-158.88-11.33-236.95c-15.27-85.89-40.13-170.27-76.14-249.8
		c-25.2-56.16-54.64-110.26-83.82-164.41C109.58,867.33,72.26,797.44,44.8,723.31C29.02,680.39,16.55,636.13,9.56,590.9
		C3.35,551.6,2.19,511.72,2.15,472c-0.4-58.42,4.5-117.86,24.44-173.19c12.83-35.85,32.28-69.24,56.72-98.41
		c24.94-30.1,54.94-55.52,86.24-78.75C232.2,75.28,303.9,41.16,379.56,22.33z"/>
	<path d="M420.08,269.32c54.95-2.18,110.03-5.04,165-1.65c44.36,2.89,88.91,10.22,130.34,26.85c17.53,7.17,34.29,16.05,50.81,25.27
		c60.7,33.89,115.01,79.18,159.1,132.94c31.01,37.47,56.94,78.95,79.09,122.19c39.5,77.7,66.56,160.94,90.32,244.58
		c20.28,74.64,51.57,146.33,93.03,211.65c21.94,34.22,46.73,66.73,75.06,95.93c41.2,42.69,90.43,78.65,146.29,99.51
		c18.82,6.76,38.5,13.6,58.82,11.65c16.69-1.26,32.74-8.94,44.2-21.13c14.96-15.5,23.2-36.28,27.41-57.12
		c4.8-24.78,3.99-50.56-1.67-75.12c-4.53-18.55-12.99-36.51-26.22-50.46c-10.24-10.91-24.35-19.25-39.67-19.11
		c-16.91,0.32-32.46,9.82-43.45,22.19c-12.18,13.81-15.71,34.54-8.37,51.49c6.26,15.42,20.79,27.19,37.29,29.71
		c7.04,1.28,14.28,0.84,21.27-0.52c4.56-5.63,7.36-12.85,6.71-20.16c-0.9-11.7-8.16-22-17.26-28.98
		c12.69,7.68,21.67,22.97,18.86,38.01c-1.14,5.08-3.32,10.21-7.03,13.92c-14.05,3.77-29.66,2.64-42.45-4.54
		c-17.26-9.41-28.34-28.82-28.08-48.41c-0.27-15.84,7.08-31.25,18.42-42.12c12.47-12.21,29.3-21.16,47.13-20.58
		c17.55,0.21,33.8,9.52,45.79,21.87c14.03,14.34,23.58,32.65,29.15,51.83c4.99,17.52,7.1,35.79,7.14,53.99
		c-0.4,24.19-4.76,48.7-15.68,70.46c-8.27,16.66-20.69,31.6-36.85,41.08c-18.65,11.23-41.44,13.95-62.69,10.48
		c-16.96-2.81-33.29-8.48-49.33-14.51c-37.61-14.66-72.4-35.97-103.77-61.26c-55.33-44.94-100.19-101.7-136.16-162.99
		c-32.66-55.82-58.28-115.76-76.21-177.89c-24-85.81-50.68-171.44-90.25-251.52c-21.14-42.47-45.99-83.23-75.65-120.31
		c-43.55-54.79-97.86-100.83-158.61-135.5c-17.73-10.15-35.83-19.81-55.02-26.93c-45.96-17.21-95.14-23.53-143.89-26.12
		c-41.65-2.16-83.38-1.34-125.07-1.28c-22.32,0.12-44.73-0.8-66.91,2.28c-34.79,4.45-68.33,15.42-100.91,28.07
		c-1.63,0.64-3.29,1.18-4.99,1.61c34.19-15.43,69.58-29.1,106.77-35.08C381.11,270.24,400.65,270.06,420.08,269.32z"/>
	<path opacity="0.91" enable-background="new    " d="M252.04,312.42c16.19-0.36,32.38-1.16,48.58-1.19
		c0.07,0.69,0.21,2.06,0.28,2.75C284.62,313.28,268.28,313.81,252.04,312.42z"/>
	<path d="M300.62,311.23c50.31-1.07,101.17,0.07,150.47,11.16c36.18,8,70.88,22.04,102.96,40.5c33.62,19.28,64.53,42.94,93.51,68.58
		c29.36,25.88,56.89,53.74,84.07,81.88c42.22,43.28,75.54,94.77,100.18,149.88c20.27,44.95,35.08,92.18,46.89,140.01
		c11.05,45.19,19.52,90.96,27.11,136.85c3.72,22.38,7.01,44.84,11.64,67.06c17.49,84.46,47.24,166.36,87.96,242.39
		c36.8,68.32,82.85,132.22,139.88,185.13c54.8,51.05,120.89,91.22,193.66,110.33c23.54,6.33,47.67,10.31,71.95,12.34
		c3.17,0.2,6.37,0.18,9.49,0.91c-6.1,2.25-12.57,1.08-18.88,1.77c-36.91-1.46-73.5-9.16-108.44-21.04
		c-40.13-13.85-77.95-34-112.64-58.41c-60.38-42.81-111.16-98.14-152.81-159.08c-44.03-64.54-78.41-135.49-103.51-209.42
		c-14.86-44.37-26.58-89.83-34.06-136.04c-8-48.51-16.05-97.05-26.75-145.06c-10.43-46.63-23.2-92.86-40.82-137.32
		c-21.72-55.26-51.35-107.76-90.28-152.77c-11.17-12.81-22.91-25.11-34.61-37.44c-28.58-30.08-57.92-59.57-89.87-86.11
		c-28.91-24.02-60.09-45.57-93.96-62.01c-34.47-16.96-71.85-27.53-109.77-33.21c-34.11-5.3-68.64-6.97-103.09-8.13
		C300.83,313.29,300.69,311.92,300.62,311.23z"/>
	<path d="M333.23,366.12c10.66,17.2,12.3,38.1,12.57,57.85c0.47,30.2-4.02,60.14-7.79,90.02c-8.37,61.98-36.34,119.09-47.38,180.47
		c-8.81,48.21-10.43,98.09-1.39,146.4c7.03,38.2,20.79,75.1,40.2,108.73c10.53,18.6,23.17,35.87,36.24,52.74
		c27.85,36.37,56.43,72.75,91.58,102.44c25.1,21.13,54.33,38.47,86.76,45.18c11.49,2.4,23.28,3.35,35.01,3.18
		c50.42-1.87,100.47-10.75,148.92-24.67c40.27-11.84,79.7-27.29,115.88-48.72c17.4-10.37,34.04-22.15,48.93-35.91
		c2.91-2.54,5.5-5.42,8.51-7.84c-10.19,12.19-22.52,22.48-35.07,32.18c-30.76,23.21-65.5,40.65-101.3,54.62
		c-26.98,10.43-54.73,18.82-82.9,25.38c19.64,32.85,40.22,65.83,51.12,102.84c6.88,21.98,9.09,45.06,9.76,67.99
		c2.74,51.23,7.21,102.69,2.18,153.93c-2.56,22.32-6.35,45.35-17.99,64.94c10.26-20.01,13.89-42.62,15.54-64.83
		c3.51-52.48-3.13-104.86-7.5-157.07c-1.3-21.17-4.44-42.36-11.44-62.44c-12.52-37.1-34.76-69.7-55.93-102.25
		c-26.62,5.6-53.62,9.46-80.78,11.17c-19.14,1.4-38.57-0.07-57.08-5.3c-33.43-9.05-63.02-28.55-88.72-51.3
		c-33.59-29.98-61.39-65.62-88.63-101.27c-15.59-20.02-29.74-41.23-41.26-63.87c-19.21-37.26-31.5-78.05-36.19-119.71
		c-5.11-44.62-1.87-89.96,7.4-133.84c12.42-59.23,40.35-114.16,50.1-174.07c4.91-30.83,10.23-61.76,10.8-93.06
		C343.43,401.68,341.82,382.67,333.23,366.12z"/>
	<path d="M523.46,646.92c2.08-13.99,4.25-27.98,6.2-41.99c2.61,13.88,3.58,28.04,4.45,42.12c-1.28,19.63-3.41,39.27-7.68,58.5
		c-4.79,22.23-12.18,43.83-20.99,64.77c-6.74,16.11-12.93,33.02-12.97,50.71c-0.16,11.33,3.26,22.56,9.29,32.12
		c5.36,8.77,12.53,16.19,19.8,23.38c8.69,10.56,18.57,20.09,27.42,30.5c-12.23-7.21-24.26-14.86-35.46-23.6
		c-11.14-10.78-21.59-22.97-27.14-37.65c-5.09-13.22-5.45-27.85-2.81-41.66c3.75-21.83,14.59-41.42,21.57-62.23
		C516.06,711.4,521.93,679.23,523.46,646.92z"/>
	<path d="M563.57,972.49c11.26-4.85,22.94-9.81,35.39-10.12c10.59-0.57,20.23,4.46,30.15,7.35c14.06,4.91,28.95,7.71,43.89,6.88
		c-19.25,31.56-53.96,53.57-90.99,56.18c-9.8,1.04-19.62-0.22-29.41-0.67c-24.64-2.01-49.67-5.1-72.66-14.71
		c-15.5-6.5-30.18-16.96-37.96-32.26c-0.44-1.16-2.02-2.81-0.43-3.75c2.34-2.86,6.26-2.45,9.33-1.16
		c13.12-4.4,25.57-10.77,39.1-13.93c9.19-2.1,19.21-2.19,27.87,1.92c7.13,3.11,10.41,11.74,18.07,13.89
		C545.96,982.33,554.69,976.4,563.57,972.49z"/>
	<path d="M1647.41,1161.63c23.96-5.9,49.37-5.14,73.2,1.02c17.59,4.69,34.46,12.59,48.56,24.2c14.66,11.9,25.76,28.15,31.38,46.2
		c11.69,35.54,8.9,75.01-5.22,109.45c-12.48,30.75-33.19,58.06-59.19,78.67c-24.13,19.21-53.31,32.49-84.05,36.2
		c-19.65,2.05-39.45,0.16-58.99-2.09c-46.82-5.95-92.38-19.52-136.04-37.19c-16.98-6.65-33.46-14.59-48.94-24.22
		c-39.43-23.85-74.71-54.67-117.1-73.46c17.03,5.12,32.88,13.52,48.41,22.06c35.57,19.96,68.94,44.28,107.16,59.16
		c39.62,14.93,80.42,27.13,122.27,33.85c22.88,3.59,46.04,5.79,69.22,5.33c34.97-1.52,68.07-17.73,93.78-40.97
		c21.97-20.09,39.32-45.53,48.72-73.86c7.01-20.82,9.72-43.24,6.66-65.06c-2.26-15.12-6.25-30.42-14.98-43.19
		c-11-16.08-27.74-27.57-45.81-34.38c-18.55-7.01-38.65-9.88-58.41-8.45c-10.56,0.99-21.22,2.71-30.95,7.11
		c-7.65,3.46-14.42,8.98-18.93,16.1c-6.35,9.82-8.85,21.5-10.44,32.93c-1.93,18.23-2.95,37.01,1.75,54.93
		c2.44,9.23,6.78,18.18,13.7,24.9c6.71,6.64,15.66,10.59,24.84,12.44c11.38,2.17,23.14,1.76,34.54-0.1
		c7.49-1.43,15.31-4.14,20.33-10.22c4.89-5.88,6.34-13.67,7.35-21.04c0.93-9.51,0.96-19.07,1.39-28.61
		c0.14-0.01,0.42-0.04,0.56-0.05c0.49,10.9,0.92,21.82,0.46,32.73c-0.59,9.37-3.8,19.25-11.5,25.17
		c-9.66,7.47-22.22,9.37-34.04,10.53c-16.25,1.48-33.76-0.89-47.12-10.89c-12.61-9.2-19.86-23.97-23.26-38.88
		c-3.74-16.69-3.9-34.01-2.5-50.99c1.25-16.79,5.2-34.26,16.1-47.56C1619.51,1171.88,1633.35,1165.14,1647.41,1161.63z"/>
	<path d="M1237.06,1328.48c6.76,1.51,13.1,4.55,19.55,7.04c37.96,15.24,74.01,35.41,106.38,60.48
		c28.83,22.27,54.51,48.52,76.66,77.44c32.68,42.65,57.5,90.89,76.67,140.97c13.36,35.4,19.04,74.05,13.69,111.65
		c-4.33,32.33-16.93,63.42-35.94,89.89c-16.95,23.83-38.96,43.88-63.69,59.4c-25.64,16.16-54.23,27.42-83.77,34.01
		c-17.62,4.07-35.64,5.97-53.62,7.6c-40.88,3.42-82.08,4.15-122.98,0.47c-37.11-3.51-74.23-10.39-108.94-24.33
		c-30.21-12.13-58.94-30.02-79.48-55.65c-11.17-14.61-18.78-31.68-23.81-49.3c-6.16-22.1-8.49-45.45-5.44-68.25
		c2.58-18.97,9.41-37.88,22.27-52.35c10.55-12.01,25.26-19.59,40.43-24.03c21.43-6.14,44.35-6.3,66.08-1.69
		c19.38,4.21,38.23,12.61,52.82,26.25c12.82,12.06,20.47,28.42,26.2,44.8c5.95,18.27,9.4,37.92,6.18,57.07
		c-1.73,9.97-5.87,19.91-13.41,26.9c-10.37,9.48-25.58,11.8-39.05,9.68c10.29,0.18,21.14-0.9,30.12-6.34
		c7.48-4.42,12.82-11.89,15.44-20.09c4.34-13.26,3.37-27.57,0.66-41.05c-3.65-17.61-10.46-34.65-20.36-49.69
		c-8.94-13.58-22.78-23.29-37.75-29.2c-23.95-9.44-50.87-11.16-75.86-5.07c-14.8,3.78-29.52,10.56-39.59,22.41
		c-10.8,12.65-15.79,29.2-17.55,45.5c-2.17,22.47,1.18,45.3,8.66,66.55c5.82,16.24,14.12,31.99,26.64,44.09
		c23.92,23.76,55.26,38.54,87.32,47.87c40.37,11.69,82.55,15.77,124.45,16.33c36.75,0.33,73.56-1.74,109.95-6.93
		c32.77-5.29,64.74-16.48,93.04-33.95c26.83-16.58,50.22-39.04,66.78-65.96c17.28-28.09,26.79-60.86,27.24-93.82
		c0.49-23.07-3.29-46.16-10.06-68.19c-5.24-16.26-11.52-32.16-18.13-47.9c-15.81-36.99-35.01-72.66-58.84-105.12
		c-23.28-31.88-50.88-60.65-82.06-84.89C1311.32,1365.58,1275.07,1344.85,1237.06,1328.48z"/>
	<path d="M1459.73,1555.43c1.21-1.38,2.59-2.59,4.21-3.47c-2.36,1.82-4.13,4.08-3.68,7.25c-19.73,1.42-39.58,2.31-59.33,0.86
		l0.58-0.05c6.31-0.69,12.78,0.48,18.88-1.77c13.11,0.2,26.23,0.68,39.35,0.16C1459.74,1557.67,1459.74,1556.17,1459.73,1555.43z"/>
</g>
</svg>
